<svg width="32" height="32" viewBox="0 0 32 32" fill="none" xmlns="http://www.w3.org/2000/svg">
<mask id="mask0_9_2791" style="mask-type:luminance" maskUnits="userSpaceOnUse" x="1" y="1" width="30" height="30">
<path d="M16.0001 29.3337C17.7514 29.3358 19.4858 28.9919 21.1038 28.3217C22.7217 27.6515 24.1913 26.6682 25.4281 25.4283C26.668 24.1916 27.6513 22.722 28.3215 21.104C28.9917 19.4861 29.3356 17.7516 29.3334 16.0003C29.3356 14.2491 28.9917 12.5146 28.3215 10.8967C27.6513 9.2787 26.668 7.80912 25.4281 6.57234C24.1913 5.33244 22.7217 4.34915 21.1038 3.67895C19.4858 3.00874 17.7514 2.66484 16.0001 2.667C14.2488 2.66484 12.5144 3.00874 10.8964 3.67895C9.27846 4.34915 7.80887 5.33244 6.57209 6.57234C5.3322 7.80912 4.3489 9.2787 3.6787 10.8967C3.0085 12.5146 2.6646 14.2491 2.66676 16.0003C2.6646 17.7516 3.0085 19.4861 3.6787 21.104C4.3489 22.722 5.3322 24.1916 6.57209 25.4283C7.80887 26.6682 9.27846 27.6515 10.8964 28.3217C12.5144 28.9919 14.2488 29.3358 16.0001 29.3337Z" fill="white" stroke="white" stroke-width="2.66667" stroke-linejoin="round"/>
<path d="M10.6667 16L14.6667 20L22.6667 12" stroke="black" stroke-width="2.66667" stroke-linecap="round" stroke-linejoin="round"/>
</mask>
<g mask="url(#mask0_9_2791)">
<path d="M0 0H32V32H0V0Z" fill="#276D6A"/>
</g>
</svg>
