<svg width="14" height="14" viewBox="0 0 14 14" fill="none" xmlns="http://www.w3.org/2000/svg">
<path fill-rule="evenodd" clip-rule="evenodd" d="M10.54 13.922C10.722 13.8459 10.8774 13.7176 10.9866 13.5534C11.0959 13.3891 11.1541 13.1963 11.154 12.999V11.38H12C12.5304 11.38 13.0391 11.1693 13.4142 10.7942C13.7893 10.4191 14 9.91043 14 9.38V2C14 1.46957 13.7893 0.960859 13.4142 0.585786C13.0391 0.210714 12.5304 0 12 0H2C1.46957 0 0.96086 0.210714 0.585787 0.585786C0.210714 0.960859 0 1.46957 0 2V9.38C0 9.91043 0.210714 10.4191 0.585787 10.7942C0.96086 11.1693 1.46957 11.38 2 11.38H7.09L9.45 13.711C9.59043 13.8497 9.76877 13.9438 9.96256 13.9813C10.1564 14.0189 10.3579 13.9982 10.54 13.922ZM10.153 11.38C10.153 11.1148 10.2584 10.8604 10.4459 10.6729C10.6334 10.4854 10.8878 10.38 11.153 10.38H12C12.2652 10.38 12.5196 10.2746 12.7071 10.0871C12.8946 9.89957 13 9.64522 13 9.38V2C13 1.73478 12.8946 1.48043 12.7071 1.29289C12.5196 1.10536 12.2652 1 12 1H2C1.73478 1 1.48043 1.10536 1.29289 1.29289C1.10536 1.48043 1 1.73478 1 2V9.38C1 9.64522 1.10536 9.89957 1.29289 10.0871C1.48043 10.2746 1.73478 10.38 2 10.38H7.09C7.35289 10.3803 7.60508 10.4841 7.792 10.669L10.154 12.999L10.153 11.38Z" fill="#276D6A"/>
</svg>
