<svg width="24" height="24" viewBox="0 0 24 24" fill="none" xmlns="http://www.w3.org/2000/svg">
<path d="M13.213 9.78699C12.8982 9.47208 12.5244 9.22227 12.113 9.05183C11.7017 8.8814 11.2607 8.79367 10.8155 8.79367C10.3702 8.79367 9.92927 8.8814 9.5179 9.05183C9.10654 9.22227 8.73277 9.47208 8.41797 9.78699L4.99297 13.213C4.35724 13.8488 4.00015 14.7112 4.00024 15.6103C4.00034 16.5095 4.35761 17.3718 4.99347 18.0075C5.62932 18.6432 6.49168 19.0003 7.39082 19.0002C8.28996 19.0001 9.15224 18.6428 9.78797 18.007L10.109 17.703M9.78797 13.213C10.1028 13.5279 10.4765 13.7777 10.8879 13.9481C11.2993 14.1186 11.7402 14.2063 12.1855 14.2063C12.6307 14.2063 13.0717 14.1186 13.483 13.9481C13.8944 13.7777 14.2682 13.5279 14.583 13.213L18.007 9.78699C18.6428 9.15127 19.0001 8.28899 19.0002 7.38984C19.0003 6.4907 18.6432 5.62835 18.0075 4.99249C17.3717 4.35663 16.5095 3.99936 15.6103 3.99927C14.7112 3.99917 13.8488 4.35627 13.213 4.99199L12.185 5.95299" stroke="#fffdf6" stroke-width="2" stroke-linecap="round" stroke-linejoin="round"/>
</svg>
